<?xml version="1.0" standalone="no"?>
<!DOCTYPE svg PUBLIC "-//W3C//DTD SVG 20010904//EN"
 "http://www.w3.org/TR/2001/REC-SVG-20010904/DTD/svg10.dtd">
<svg version="1.0" xmlns="http://www.w3.org/2000/svg"
 width="414.000000pt" height="116.000000pt" viewBox="0 0 414.000000 116.000000"
 preserveAspectRatio="xMidYMid meet">

<g transform="translate(0.000000,116.000000) scale(0.100000,-0.100000)"
fill="#000000" stroke="none">
<path d="M497 733 c-42 -32 -76 -62 -76 -68 0 -5 28 -34 62 -64 34 -29 113
-98 174 -153 l113 -100 175 157 c96 86 175 159 175 163 -1 4 -35 33 -77 65
l-76 57 -197 0 -197 0 -76 -57z m223 38 c0 -15 -57 -23 -79 -11 -31 16 -26 20
29 20 28 0 50 -4 50 -9z m200 4 c0 -13 -45 -26 -71 -20 -46 10 -34 25 21 25
28 0 50 -2 50 -5z m-302 -23 l32 -18 -55 -27 -55 -27 0 33 c0 33 15 57 35 57
5 -1 25 -9 43 -18z m201 -1 l35 -18 -42 -28 -42 -28 -42 28 -42 28 35 18 c19
10 41 18 49 18 8 0 30 -8 49 -18z m162 9 c13 -8 19 -21 19 -45 l0 -35 -55 27
-55 27 32 18 c40 21 35 20 59 8z m-459 -60 c-4 -25 -9 -30 -33 -30 -36 0 -36
8 -1 37 36 29 39 29 34 -7z m528 8 c17 -12 30 -25 30 -30 0 -10 -60 -11 -60 0
0 4 -3 17 -6 30 -8 28 -1 28 36 0z m-345 -4 c35 -23 31 -34 -10 -34 -27 0 -35
4 -35 18 0 17 8 32 17 32 2 0 15 -7 28 -16z m169 0 c11 -29 6 -34 -29 -34 -40
0 -45 11 -12 33 28 20 34 20 41 1z m-234 -14 c-10 -20 -60 -29 -60 -12 0 10
38 30 58 31 10 1 10 -4 2 -19z m295 8 c32 -14 32 -28 0 -28 -14 0 -29 8 -35
20 -12 23 -3 25 35 8z m-387 -75 c12 -21 31 -53 43 -70 32 -50 11 -39 -71 37
l-75 69 41 1 c36 0 42 -4 62 -37z m107 -14 c34 -66 47 -102 37 -97 -5 1 -39
36 -76 76 l-68 72 41 0 c39 0 42 -2 66 -51z m101 19 c-4 -18 -9 -51 -12 -73
-10 -72 -15 -72 -45 -5 -16 35 -32 75 -35 87 -6 22 -3 23 46 23 l53 0 -7 -32z
m124 22 c0 -17 -62 -150 -70 -150 -4 0 -10 23 -14 51 -4 29 -10 65 -13 80 -5
29 -5 29 46 29 28 0 51 -4 51 -10z m40 -65 c-41 -41 -75 -73 -77 -71 -2 1 12
35 30 74 l32 72 45 0 44 0 -74 -75z m100 5 c-77 -71 -103 -87 -78 -47 8 12 27
43 42 70 26 44 30 47 69 47 l42 0 -75 -70z m-234 -67 c8 -46 8 -76 1 -100 -13
-41 -19 -42 -34 -2 -9 24 -10 49 -1 105 6 41 14 71 17 68 3 -3 11 -35 17 -71z
m-112 -21 c70 -77 89 -120 39 -84 -16 11 -35 28 -44 38 -26 31 -81 126 -70
123 5 -2 39 -37 75 -77z m240 21 c-34 -54 -99 -122 -117 -123 -4 0 -1 13 8 29
17 34 123 151 136 151 5 0 -7 -26 -27 -57z"/>
<path d="M3628 754 c-14 -14 -138 -17 -1183 -30 -1112 -14 -1169 -14 -1187 3
-19 17 -20 17 -38 -7 -19 -24 -19 -25 0 -44 18 -18 21 -19 38 -3 16 15 126 18
1182 31 999 12 1167 12 1181 0 22 -20 36 -17 50 7 9 18 8 25 -8 40 -17 18 -20
18 -35 3z"/>
<path d="M1230 530 l0 -110 58 0 c74 0 102 18 102 66 0 22 -6 37 -15 41 -14 5
-14 8 1 24 22 25 11 67 -22 79 -14 6 -48 10 -75 10 l-49 0 0 -110z m107 54 c7
-18 -12 -34 -39 -34 -13 0 -18 8 -18 25 0 20 5 25 25 25 14 0 28 -7 32 -16z
m1 -96 c-2 -17 -11 -24 -30 -26 -24 -3 -28 0 -28 22 0 22 4 26 31 26 26 0 30
-3 27 -22z"/>
<path d="M1440 530 l0 -110 65 0 c58 0 65 2 65 20 0 17 -7 20 -45 20 l-45 0 0
90 c0 83 -1 90 -20 90 -19 0 -20 -7 -20 -110z"/>
<path d="M1655 628 c-2 -7 -20 -57 -39 -110 l-34 -98 24 0 c17 0 27 8 34 25 8
21 16 25 50 25 34 0 41 -4 46 -25 4 -18 13 -25 30 -25 13 0 24 3 24 6 0 3 -17
53 -37 110 -35 99 -38 104 -65 104 -16 0 -31 -6 -33 -12z m51 -86 c6 -29 4
-32 -19 -32 -24 0 -25 1 -15 41 12 44 24 41 34 -9z"/>
<path d="M1863 628 c-24 -12 -53 -64 -53 -97 0 -35 27 -88 50 -101 31 -17 104
-9 108 12 3 14 -6 17 -45 20 -47 3 -48 4 -58 41 -14 59 8 92 62 91 32 0 43 4
46 17 3 10 -2 20 -10 23 -23 9 -76 6 -100 -6z"/>
<path d="M2020 530 c0 -103 1 -110 20 -110 15 0 20 7 20 25 0 36 1 39 13 53 8
10 17 3 39 -32 21 -35 34 -46 53 -46 24 0 25 2 14 23 -7 12 -23 39 -37 59 -27
41 -28 37 28 111 l22 27 -25 0 c-18 0 -35 -12 -57 -40 -36 -46 -50 -44 -50 6
0 27 -4 34 -20 34 -19 0 -20 -7 -20 -110z"/>
<path d="M2220 530 l0 -110 25 0 c23 0 25 4 25 40 0 38 2 40 30 40 38 0 70 31
70 68 0 49 -33 72 -104 72 l-46 0 0 -110z m95 40 c0 -18 -6 -26 -22 -28 -20
-3 -23 1 -23 28 0 27 3 31 23 28 16 -2 22 -10 22 -28z"/>
<path d="M2426 538 c-20 -57 -36 -106 -36 -110 0 -5 11 -8 24 -8 17 0 26 7 30
25 5 21 12 25 46 25 34 0 41 -4 46 -25 4 -18 13 -25 31 -25 30 0 29 4 -18 135
-29 79 -33 85 -59 85 -26 0 -29 -6 -64 -102z m84 0 c8 -25 7 -28 -16 -28 -27
0 -30 14 -13 57 8 19 13 23 16 13 3 -8 8 -27 13 -42z"/>
<path d="M2627 627 c-3 -8 -5 -57 -5 -110 0 -96 0 -97 24 -97 21 0 24 4 24 40
0 53 22 53 52 0 22 -38 25 -40 75 -40 48 0 53 2 59 25 5 22 12 25 49 25 37 0
44 -3 49 -25 5 -18 13 -25 32 -25 20 0 24 4 20 18 -4 9 -21 58 -39 107 -31 85
-34 90 -62 90 -28 0 -30 -4 -63 -95 -18 -52 -37 -99 -41 -103 -4 -4 -20 10
-35 33 l-26 40 20 28 c40 54 -2 102 -90 102 -22 0 -40 -5 -43 -13z m87 -33
c22 -8 20 -31 -3 -44 -32 -16 -41 -12 -41 20 0 30 11 37 44 24z m215 -71 c1
-7 -10 -13 -25 -13 -19 0 -24 4 -20 18 3 9 8 30 12 47 l7 30 13 -35 c7 -19 13
-41 13 -47z"/>
<path d="M3040 530 l0 -112 60 4 c83 6 115 36 115 108 0 72 -32 102 -115 108
l-60 4 0 -112z m112 53 c41 -37 11 -123 -43 -123 l-29 0 0 70 c0 69 0 70 27
70 14 0 35 -7 45 -17z"/>
<path d="M3304 628 c-29 -14 -44 -50 -44 -107 0 -63 34 -101 91 -101 78 0 109
33 109 116 0 62 -40 104 -97 103 -21 0 -48 -5 -59 -11z m94 -40 c16 -16 16
-100 0 -116 -17 -17 -63 -15 -78 3 -7 9 -13 33 -13 55 0 22 6 46 13 55 15 18
61 20 78 3z"/>
<path d="M3490 635 c0 -3 14 -27 31 -54 l30 -50 -35 -56 -36 -55 25 0 c19 0
31 10 46 35 12 19 25 35 29 35 5 0 18 -16 30 -35 15 -25 29 -35 46 -35 28 0
28 0 -18 67 l-28 42 30 49 c35 58 36 62 11 62 -11 0 -28 -15 -41 -35 -12 -19
-25 -35 -29 -35 -3 0 -15 16 -25 35 -14 25 -26 35 -43 35 -12 0 -23 -2 -23 -5z"/>
</g>
</svg>
